<mxfile host="app.diagrams.net" modified="2024-03-25T22:45:06.056Z" agent="Mozilla/5.0 (Windows NT 10.0; Win64; x64) AppleWebKit/537.36 (KHTML, like Gecko) Chrome/123.0.0.0 Safari/537.36" etag="P0fmDuEJJTYsGmZ-BJs5" version="24.1.0" type="device">
  <diagram name="Page-1" id="BiyTJAOcuI-myTODdpJ7">
    <mxGraphModel dx="1434" dy="780" grid="1" gridSize="10" guides="1" tooltips="1" connect="1" arrows="1" fold="1" page="1" pageScale="1" pageWidth="850" pageHeight="1100" math="0" shadow="0">
      <root>
        <mxCell id="0" />
        <mxCell id="1" parent="0" />
        <mxCell id="n2znYoqwNfWHmBYJADCS-70" value="" style="rounded=0;whiteSpace=wrap;html=1;fillColor=#f8cecc;strokeColor=#b85450;dashed=1;" vertex="1" parent="1">
          <mxGeometry x="100" y="20" width="570" height="220" as="geometry" />
        </mxCell>
        <mxCell id="n2znYoqwNfWHmBYJADCS-69" value="" style="rounded=0;whiteSpace=wrap;html=1;fillColor=#fff2cc;strokeColor=#d6b656;dashed=1;" vertex="1" parent="1">
          <mxGeometry x="460" y="460" width="270" height="160" as="geometry" />
        </mxCell>
        <mxCell id="n2znYoqwNfWHmBYJADCS-68" value="" style="rounded=0;whiteSpace=wrap;html=1;fillColor=#e1d5e7;strokeColor=#9673a6;dashed=1;" vertex="1" parent="1">
          <mxGeometry x="110" y="460" width="340" height="160" as="geometry" />
        </mxCell>
        <mxCell id="n2znYoqwNfWHmBYJADCS-67" value="" style="rounded=0;whiteSpace=wrap;html=1;fillColor=#d5e8d4;strokeColor=#82b366;dashed=1;" vertex="1" parent="1">
          <mxGeometry x="120" y="620" width="570" height="170" as="geometry" />
        </mxCell>
        <mxCell id="n2znYoqwNfWHmBYJADCS-66" value="" style="rounded=0;whiteSpace=wrap;html=1;fillColor=#dae8fc;strokeColor=#6c8ebf;dashed=1;" vertex="1" parent="1">
          <mxGeometry x="35" y="800" width="645" height="210" as="geometry" />
        </mxCell>
        <mxCell id="n2znYoqwNfWHmBYJADCS-28" value="" style="rounded=0;whiteSpace=wrap;html=1;dashed=1;fillColor=#ffe6cc;strokeColor=#d79b00;" vertex="1" parent="1">
          <mxGeometry x="150" y="250" width="520" height="190" as="geometry" />
        </mxCell>
        <mxCell id="n2znYoqwNfWHmBYJADCS-13" value="" style="edgeStyle=orthogonalEdgeStyle;rounded=0;orthogonalLoop=1;jettySize=auto;html=1;entryX=0;entryY=0.5;entryDx=0;entryDy=0;" edge="1" parent="1" source="n2znYoqwNfWHmBYJADCS-1" target="n2znYoqwNfWHmBYJADCS-10">
          <mxGeometry relative="1" as="geometry" />
        </mxCell>
        <mxCell id="n2znYoqwNfWHmBYJADCS-14" style="edgeStyle=orthogonalEdgeStyle;rounded=0;orthogonalLoop=1;jettySize=auto;html=1;entryX=0;entryY=0.5;entryDx=0;entryDy=0;" edge="1" parent="1" source="n2znYoqwNfWHmBYJADCS-1" target="n2znYoqwNfWHmBYJADCS-11">
          <mxGeometry relative="1" as="geometry" />
        </mxCell>
        <mxCell id="n2znYoqwNfWHmBYJADCS-15" style="edgeStyle=orthogonalEdgeStyle;rounded=0;orthogonalLoop=1;jettySize=auto;html=1;entryX=0;entryY=0.5;entryDx=0;entryDy=0;exitX=0.5;exitY=0;exitDx=0;exitDy=0;" edge="1" parent="1" source="n2znYoqwNfWHmBYJADCS-1" target="n2znYoqwNfWHmBYJADCS-8">
          <mxGeometry relative="1" as="geometry" />
        </mxCell>
        <mxCell id="n2znYoqwNfWHmBYJADCS-31" style="edgeStyle=orthogonalEdgeStyle;rounded=0;orthogonalLoop=1;jettySize=auto;html=1;entryX=0;entryY=0.5;entryDx=0;entryDy=0;exitX=0.75;exitY=1;exitDx=0;exitDy=0;" edge="1" parent="1" source="n2znYoqwNfWHmBYJADCS-1" target="n2znYoqwNfWHmBYJADCS-30">
          <mxGeometry relative="1" as="geometry" />
        </mxCell>
        <mxCell id="n2znYoqwNfWHmBYJADCS-32" style="edgeStyle=orthogonalEdgeStyle;rounded=0;orthogonalLoop=1;jettySize=auto;html=1;entryX=0;entryY=0.5;entryDx=0;entryDy=0;exitX=0.75;exitY=1;exitDx=0;exitDy=0;" edge="1" parent="1" source="n2znYoqwNfWHmBYJADCS-1" target="n2znYoqwNfWHmBYJADCS-29">
          <mxGeometry relative="1" as="geometry" />
        </mxCell>
        <mxCell id="n2znYoqwNfWHmBYJADCS-36" style="edgeStyle=orthogonalEdgeStyle;rounded=0;orthogonalLoop=1;jettySize=auto;html=1;entryX=0;entryY=0.5;entryDx=0;entryDy=0;exitX=0.5;exitY=1;exitDx=0;exitDy=0;" edge="1" parent="1" source="n2znYoqwNfWHmBYJADCS-1" target="n2znYoqwNfWHmBYJADCS-38">
          <mxGeometry relative="1" as="geometry" />
        </mxCell>
        <mxCell id="n2znYoqwNfWHmBYJADCS-43" style="edgeStyle=orthogonalEdgeStyle;rounded=0;orthogonalLoop=1;jettySize=auto;html=1;entryX=0;entryY=0.5;entryDx=0;entryDy=0;exitX=0.5;exitY=1;exitDx=0;exitDy=0;" edge="1" parent="1" source="n2znYoqwNfWHmBYJADCS-1" target="n2znYoqwNfWHmBYJADCS-35">
          <mxGeometry relative="1" as="geometry" />
        </mxCell>
        <mxCell id="n2znYoqwNfWHmBYJADCS-44" style="edgeStyle=orthogonalEdgeStyle;rounded=0;orthogonalLoop=1;jettySize=auto;html=1;entryX=0;entryY=0.5;entryDx=0;entryDy=0;exitX=0.25;exitY=1;exitDx=0;exitDy=0;" edge="1" parent="1" source="n2znYoqwNfWHmBYJADCS-1" target="n2znYoqwNfWHmBYJADCS-39">
          <mxGeometry relative="1" as="geometry" />
        </mxCell>
        <mxCell id="n2znYoqwNfWHmBYJADCS-51" style="edgeStyle=orthogonalEdgeStyle;rounded=0;orthogonalLoop=1;jettySize=auto;html=1;exitX=1;exitY=1;exitDx=0;exitDy=0;" edge="1" parent="1" source="n2znYoqwNfWHmBYJADCS-1" target="n2znYoqwNfWHmBYJADCS-49">
          <mxGeometry relative="1" as="geometry">
            <Array as="points">
              <mxPoint x="130" y="460" />
              <mxPoint x="560" y="460" />
            </Array>
          </mxGeometry>
        </mxCell>
        <mxCell id="n2znYoqwNfWHmBYJADCS-1" value="Hiker: User" style="whiteSpace=wrap;html=1;align=center;fontStyle=1;fontSize=14;strokeWidth=3;" vertex="1" parent="1">
          <mxGeometry x="20" y="320" width="110" height="50" as="geometry" />
        </mxCell>
        <mxCell id="n2znYoqwNfWHmBYJADCS-20" style="edgeStyle=orthogonalEdgeStyle;rounded=0;orthogonalLoop=1;jettySize=auto;html=1;entryX=1;entryY=0.5;entryDx=0;entryDy=0;exitX=0.5;exitY=0;exitDx=0;exitDy=0;" edge="1" parent="1" source="n2znYoqwNfWHmBYJADCS-2" target="n2znYoqwNfWHmBYJADCS-12">
          <mxGeometry relative="1" as="geometry" />
        </mxCell>
        <mxCell id="n2znYoqwNfWHmBYJADCS-27" style="edgeStyle=orthogonalEdgeStyle;rounded=0;orthogonalLoop=1;jettySize=auto;html=1;entryX=1;entryY=0.5;entryDx=0;entryDy=0;exitX=0;exitY=0.5;exitDx=0;exitDy=0;" edge="1" parent="1" source="n2znYoqwNfWHmBYJADCS-2" target="n2znYoqwNfWHmBYJADCS-25">
          <mxGeometry relative="1" as="geometry">
            <Array as="points">
              <mxPoint x="710" y="340" />
            </Array>
          </mxGeometry>
        </mxCell>
        <mxCell id="n2znYoqwNfWHmBYJADCS-53" style="edgeStyle=orthogonalEdgeStyle;rounded=0;orthogonalLoop=1;jettySize=auto;html=1;entryX=1;entryY=0.5;entryDx=0;entryDy=0;exitX=0.25;exitY=1;exitDx=0;exitDy=0;" edge="1" parent="1" source="n2znYoqwNfWHmBYJADCS-2" target="n2znYoqwNfWHmBYJADCS-49">
          <mxGeometry relative="1" as="geometry" />
        </mxCell>
        <mxCell id="n2znYoqwNfWHmBYJADCS-54" style="edgeStyle=orthogonalEdgeStyle;rounded=0;orthogonalLoop=1;jettySize=auto;html=1;entryX=1;entryY=0.5;entryDx=0;entryDy=0;exitX=0.45;exitY=0.98;exitDx=0;exitDy=0;exitPerimeter=0;" edge="1" parent="1" source="n2znYoqwNfWHmBYJADCS-2" target="n2znYoqwNfWHmBYJADCS-48">
          <mxGeometry relative="1" as="geometry" />
        </mxCell>
        <mxCell id="n2znYoqwNfWHmBYJADCS-56" style="edgeStyle=orthogonalEdgeStyle;rounded=0;orthogonalLoop=1;jettySize=auto;html=1;exitX=0.75;exitY=1;exitDx=0;exitDy=0;entryX=1;entryY=0.5;entryDx=0;entryDy=0;" edge="1" parent="1" source="n2znYoqwNfWHmBYJADCS-2" target="n2znYoqwNfWHmBYJADCS-57">
          <mxGeometry relative="1" as="geometry">
            <mxPoint x="790" y="850" as="targetPoint" />
          </mxGeometry>
        </mxCell>
        <mxCell id="n2znYoqwNfWHmBYJADCS-2" value="Rescuer: User" style="whiteSpace=wrap;html=1;align=center;strokeWidth=3;fontStyle=1;fontSize=14;" vertex="1" parent="1">
          <mxGeometry x="700" y="310" width="120" height="50" as="geometry" />
        </mxCell>
        <mxCell id="n2znYoqwNfWHmBYJADCS-3" value="Route" style="whiteSpace=wrap;html=1;align=center;" vertex="1" parent="1">
          <mxGeometry x="360" y="690" width="100" height="40" as="geometry" />
        </mxCell>
        <mxCell id="n2znYoqwNfWHmBYJADCS-60" value="" style="edgeStyle=orthogonalEdgeStyle;rounded=0;orthogonalLoop=1;jettySize=auto;html=1;" edge="1" parent="1" source="n2znYoqwNfWHmBYJADCS-4" target="n2znYoqwNfWHmBYJADCS-59">
          <mxGeometry relative="1" as="geometry" />
        </mxCell>
        <mxCell id="n2znYoqwNfWHmBYJADCS-4" value="LiveTrack" style="whiteSpace=wrap;html=1;align=center;" vertex="1" parent="1">
          <mxGeometry x="360" y="840" width="100" height="40" as="geometry" />
        </mxCell>
        <mxCell id="n2znYoqwNfWHmBYJADCS-5" value="Alert" style="whiteSpace=wrap;html=1;align=center;" vertex="1" parent="1">
          <mxGeometry x="360" y="320" width="100" height="40" as="geometry" />
        </mxCell>
        <mxCell id="n2znYoqwNfWHmBYJADCS-6" value="POI" style="whiteSpace=wrap;html=1;align=center;" vertex="1" parent="1">
          <mxGeometry x="325" y="520" width="100" height="40" as="geometry" />
        </mxCell>
        <mxCell id="n2znYoqwNfWHmBYJADCS-18" style="edgeStyle=orthogonalEdgeStyle;rounded=0;orthogonalLoop=1;jettySize=auto;html=1;entryX=0;entryY=0.5;entryDx=0;entryDy=0;" edge="1" parent="1" source="n2znYoqwNfWHmBYJADCS-7" target="n2znYoqwNfWHmBYJADCS-9">
          <mxGeometry relative="1" as="geometry" />
        </mxCell>
        <mxCell id="n2znYoqwNfWHmBYJADCS-7" value="SOS Alert" style="whiteSpace=wrap;html=1;align=center;" vertex="1" parent="1">
          <mxGeometry x="330" y="110" width="100" height="40" as="geometry" />
        </mxCell>
        <mxCell id="n2znYoqwNfWHmBYJADCS-16" value="" style="edgeStyle=orthogonalEdgeStyle;rounded=0;orthogonalLoop=1;jettySize=auto;html=1;" edge="1" parent="1" source="n2znYoqwNfWHmBYJADCS-8" target="n2znYoqwNfWHmBYJADCS-7">
          <mxGeometry relative="1" as="geometry" />
        </mxCell>
        <mxCell id="n2znYoqwNfWHmBYJADCS-8" value="Send" style="shape=rhombus;perimeter=rhombusPerimeter;whiteSpace=wrap;html=1;align=center;" vertex="1" parent="1">
          <mxGeometry x="150" y="100" width="120" height="60" as="geometry" />
        </mxCell>
        <mxCell id="n2znYoqwNfWHmBYJADCS-19" style="edgeStyle=orthogonalEdgeStyle;rounded=0;orthogonalLoop=1;jettySize=auto;html=1;entryX=0.25;entryY=0;entryDx=0;entryDy=0;" edge="1" parent="1" source="n2znYoqwNfWHmBYJADCS-9" target="n2znYoqwNfWHmBYJADCS-2">
          <mxGeometry relative="1" as="geometry" />
        </mxCell>
        <mxCell id="n2znYoqwNfWHmBYJADCS-9" value="Trigger event" style="shape=rhombus;perimeter=rhombusPerimeter;whiteSpace=wrap;html=1;align=center;" vertex="1" parent="1">
          <mxGeometry x="480" y="160" width="120" height="60" as="geometry" />
        </mxCell>
        <mxCell id="n2znYoqwNfWHmBYJADCS-22" style="edgeStyle=orthogonalEdgeStyle;rounded=0;orthogonalLoop=1;jettySize=auto;html=1;" edge="1" parent="1" source="n2znYoqwNfWHmBYJADCS-10" target="n2znYoqwNfWHmBYJADCS-5">
          <mxGeometry relative="1" as="geometry" />
        </mxCell>
        <mxCell id="n2znYoqwNfWHmBYJADCS-10" value="CRUD" style="shape=rhombus;perimeter=rhombusPerimeter;whiteSpace=wrap;html=1;align=center;" vertex="1" parent="1">
          <mxGeometry x="190" y="260" width="120" height="60" as="geometry" />
        </mxCell>
        <mxCell id="n2znYoqwNfWHmBYJADCS-23" style="edgeStyle=orthogonalEdgeStyle;rounded=0;orthogonalLoop=1;jettySize=auto;html=1;entryX=0;entryY=0.5;entryDx=0;entryDy=0;" edge="1" parent="1" source="n2znYoqwNfWHmBYJADCS-11" target="n2znYoqwNfWHmBYJADCS-5">
          <mxGeometry relative="1" as="geometry" />
        </mxCell>
        <mxCell id="n2znYoqwNfWHmBYJADCS-11" value="Verify other Hikers&#39;&lt;div&gt;Alerts&lt;/div&gt;" style="shape=rhombus;perimeter=rhombusPerimeter;whiteSpace=wrap;html=1;align=center;" vertex="1" parent="1">
          <mxGeometry x="180" y="340" width="140" height="90" as="geometry" />
        </mxCell>
        <mxCell id="n2znYoqwNfWHmBYJADCS-21" style="edgeStyle=orthogonalEdgeStyle;rounded=0;orthogonalLoop=1;jettySize=auto;html=1;" edge="1" parent="1" source="n2znYoqwNfWHmBYJADCS-12" target="n2znYoqwNfWHmBYJADCS-7">
          <mxGeometry relative="1" as="geometry" />
        </mxCell>
        <mxCell id="n2znYoqwNfWHmBYJADCS-12" value="Verify" style="shape=rhombus;perimeter=rhombusPerimeter;whiteSpace=wrap;html=1;align=center;" vertex="1" parent="1">
          <mxGeometry x="480" y="30" width="120" height="60" as="geometry" />
        </mxCell>
        <mxCell id="n2znYoqwNfWHmBYJADCS-26" value="" style="edgeStyle=orthogonalEdgeStyle;rounded=0;orthogonalLoop=1;jettySize=auto;html=1;" edge="1" parent="1" source="n2znYoqwNfWHmBYJADCS-25" target="n2znYoqwNfWHmBYJADCS-5">
          <mxGeometry relative="1" as="geometry" />
        </mxCell>
        <mxCell id="n2znYoqwNfWHmBYJADCS-25" value="Monitor" style="shape=rhombus;perimeter=rhombusPerimeter;whiteSpace=wrap;html=1;align=center;" vertex="1" parent="1">
          <mxGeometry x="520" y="310" width="120" height="60" as="geometry" />
        </mxCell>
        <mxCell id="n2znYoqwNfWHmBYJADCS-34" value="" style="edgeStyle=orthogonalEdgeStyle;rounded=0;orthogonalLoop=1;jettySize=auto;html=1;" edge="1" parent="1" source="n2znYoqwNfWHmBYJADCS-29" target="n2znYoqwNfWHmBYJADCS-6">
          <mxGeometry relative="1" as="geometry" />
        </mxCell>
        <mxCell id="n2znYoqwNfWHmBYJADCS-29" value="CRUD" style="shape=rhombus;perimeter=rhombusPerimeter;whiteSpace=wrap;html=1;align=center;" vertex="1" parent="1">
          <mxGeometry x="155" y="470" width="120" height="60" as="geometry" />
        </mxCell>
        <mxCell id="n2znYoqwNfWHmBYJADCS-33" value="" style="edgeStyle=orthogonalEdgeStyle;rounded=0;orthogonalLoop=1;jettySize=auto;html=1;" edge="1" parent="1" source="n2znYoqwNfWHmBYJADCS-30" target="n2znYoqwNfWHmBYJADCS-6">
          <mxGeometry relative="1" as="geometry" />
        </mxCell>
        <mxCell id="n2znYoqwNfWHmBYJADCS-30" value="Share" style="shape=rhombus;perimeter=rhombusPerimeter;whiteSpace=wrap;html=1;align=center;" vertex="1" parent="1">
          <mxGeometry x="155" y="550" width="120" height="60" as="geometry" />
        </mxCell>
        <mxCell id="n2znYoqwNfWHmBYJADCS-42" value="" style="edgeStyle=orthogonalEdgeStyle;rounded=0;orthogonalLoop=1;jettySize=auto;html=1;" edge="1" parent="1" source="n2znYoqwNfWHmBYJADCS-35" target="n2znYoqwNfWHmBYJADCS-3">
          <mxGeometry relative="1" as="geometry" />
        </mxCell>
        <mxCell id="n2znYoqwNfWHmBYJADCS-35" value="Plan" style="shape=rhombus;perimeter=rhombusPerimeter;whiteSpace=wrap;html=1;align=center;" vertex="1" parent="1">
          <mxGeometry x="190" y="640" width="120" height="60" as="geometry" />
        </mxCell>
        <mxCell id="n2znYoqwNfWHmBYJADCS-41" value="" style="edgeStyle=orthogonalEdgeStyle;rounded=0;orthogonalLoop=1;jettySize=auto;html=1;" edge="1" parent="1" source="n2znYoqwNfWHmBYJADCS-38" target="n2znYoqwNfWHmBYJADCS-3">
          <mxGeometry relative="1" as="geometry" />
        </mxCell>
        <mxCell id="n2znYoqwNfWHmBYJADCS-38" value="Navigate" style="shape=rhombus;perimeter=rhombusPerimeter;whiteSpace=wrap;html=1;align=center;" vertex="1" parent="1">
          <mxGeometry x="190" y="720" width="120" height="60" as="geometry" />
        </mxCell>
        <mxCell id="n2znYoqwNfWHmBYJADCS-40" value="" style="edgeStyle=orthogonalEdgeStyle;rounded=0;orthogonalLoop=1;jettySize=auto;html=1;" edge="1" parent="1" source="n2znYoqwNfWHmBYJADCS-39" target="n2znYoqwNfWHmBYJADCS-4">
          <mxGeometry relative="1" as="geometry" />
        </mxCell>
        <mxCell id="n2znYoqwNfWHmBYJADCS-39" value="Record" style="shape=rhombus;perimeter=rhombusPerimeter;whiteSpace=wrap;html=1;align=center;" vertex="1" parent="1">
          <mxGeometry x="190" y="830" width="120" height="60" as="geometry" />
        </mxCell>
        <mxCell id="n2znYoqwNfWHmBYJADCS-55" value="" style="edgeStyle=orthogonalEdgeStyle;rounded=0;orthogonalLoop=1;jettySize=auto;html=1;" edge="1" parent="1" source="n2znYoqwNfWHmBYJADCS-48" target="n2znYoqwNfWHmBYJADCS-3">
          <mxGeometry relative="1" as="geometry" />
        </mxCell>
        <mxCell id="n2znYoqwNfWHmBYJADCS-48" value="View planned for today" style="shape=rhombus;perimeter=rhombusPerimeter;whiteSpace=wrap;html=1;align=center;" vertex="1" parent="1">
          <mxGeometry x="520" y="670" width="120" height="80" as="geometry" />
        </mxCell>
        <mxCell id="n2znYoqwNfWHmBYJADCS-52" value="" style="edgeStyle=orthogonalEdgeStyle;rounded=0;orthogonalLoop=1;jettySize=auto;html=1;" edge="1" parent="1" source="n2znYoqwNfWHmBYJADCS-49" target="n2znYoqwNfWHmBYJADCS-50">
          <mxGeometry relative="1" as="geometry" />
        </mxCell>
        <mxCell id="n2znYoqwNfWHmBYJADCS-49" value="Send Message" style="shape=rhombus;perimeter=rhombusPerimeter;whiteSpace=wrap;html=1;align=center;" vertex="1" parent="1">
          <mxGeometry x="500" y="480" width="120" height="60" as="geometry" />
        </mxCell>
        <mxCell id="n2znYoqwNfWHmBYJADCS-50" value="Communication" style="whiteSpace=wrap;html=1;align=center;" vertex="1" parent="1">
          <mxGeometry x="510" y="570" width="100" height="40" as="geometry" />
        </mxCell>
        <mxCell id="n2znYoqwNfWHmBYJADCS-58" value="" style="edgeStyle=orthogonalEdgeStyle;rounded=0;orthogonalLoop=1;jettySize=auto;html=1;" edge="1" parent="1" source="n2znYoqwNfWHmBYJADCS-57" target="n2znYoqwNfWHmBYJADCS-4">
          <mxGeometry relative="1" as="geometry" />
        </mxCell>
        <mxCell id="n2znYoqwNfWHmBYJADCS-57" value="View all active Hikers" style="shape=rhombus;perimeter=rhombusPerimeter;whiteSpace=wrap;html=1;align=center;" vertex="1" parent="1">
          <mxGeometry x="525" y="820" width="110" height="80" as="geometry" />
        </mxCell>
        <mxCell id="n2znYoqwNfWHmBYJADCS-62" value="" style="edgeStyle=orthogonalEdgeStyle;rounded=0;orthogonalLoop=1;jettySize=auto;html=1;" edge="1" parent="1" source="n2znYoqwNfWHmBYJADCS-59" target="n2znYoqwNfWHmBYJADCS-61">
          <mxGeometry relative="1" as="geometry" />
        </mxCell>
        <mxCell id="n2znYoqwNfWHmBYJADCS-59" value="Assign region" style="shape=rhombus;perimeter=rhombusPerimeter;whiteSpace=wrap;html=1;align=center;" vertex="1" parent="1">
          <mxGeometry x="350" y="920" width="120" height="60" as="geometry" />
        </mxCell>
        <mxCell id="n2znYoqwNfWHmBYJADCS-64" value="" style="edgeStyle=orthogonalEdgeStyle;rounded=0;orthogonalLoop=1;jettySize=auto;html=1;" edge="1" parent="1" source="n2znYoqwNfWHmBYJADCS-61" target="n2znYoqwNfWHmBYJADCS-63">
          <mxGeometry relative="1" as="geometry" />
        </mxCell>
        <mxCell id="n2znYoqwNfWHmBYJADCS-61" value="Region" style="shape=ext;margin=3;double=1;whiteSpace=wrap;html=1;align=center;" vertex="1" parent="1">
          <mxGeometry x="200" y="930" width="100" height="40" as="geometry" />
        </mxCell>
        <mxCell id="n2znYoqwNfWHmBYJADCS-65" style="edgeStyle=orthogonalEdgeStyle;rounded=0;orthogonalLoop=1;jettySize=auto;html=1;entryX=0;entryY=1;entryDx=0;entryDy=0;exitX=0;exitY=0.5;exitDx=0;exitDy=0;" edge="1" parent="1" source="n2znYoqwNfWHmBYJADCS-63" target="n2znYoqwNfWHmBYJADCS-1">
          <mxGeometry relative="1" as="geometry" />
        </mxCell>
        <mxCell id="n2znYoqwNfWHmBYJADCS-63" value="Show nearby" style="shape=rhombus;perimeter=rhombusPerimeter;whiteSpace=wrap;html=1;align=center;" vertex="1" parent="1">
          <mxGeometry x="40" y="920" width="120" height="60" as="geometry" />
        </mxCell>
        <mxCell id="n2znYoqwNfWHmBYJADCS-72" value="SOS Microservice" style="text;html=1;align=center;verticalAlign=middle;whiteSpace=wrap;rounded=0;fontStyle=1;fillColor=#f8cecc;strokeColor=#b85450;fillStyle=auto;strokeWidth=3;" vertex="1" parent="1">
          <mxGeometry x="230" y="30" width="100" height="40" as="geometry" />
        </mxCell>
        <mxCell id="n2znYoqwNfWHmBYJADCS-73" value="Alert Microservice" style="text;html=1;align=center;verticalAlign=middle;whiteSpace=wrap;rounded=0;fillColor=#ffe6cc;strokeColor=#d79b00;strokeWidth=3;fontStyle=1" vertex="1" parent="1">
          <mxGeometry x="370" y="260" width="80" height="40" as="geometry" />
        </mxCell>
        <mxCell id="n2znYoqwNfWHmBYJADCS-74" value="POI Microservice" style="text;html=1;align=center;verticalAlign=middle;whiteSpace=wrap;rounded=0;fontStyle=1;fillColor=#e1d5e7;strokeColor=#9673a6;strokeWidth=3;" vertex="1" parent="1">
          <mxGeometry x="325" y="470" width="80" height="40" as="geometry" />
        </mxCell>
        <mxCell id="n2znYoqwNfWHmBYJADCS-75" value="Communication Microservice" style="text;html=1;align=center;verticalAlign=middle;whiteSpace=wrap;rounded=0;fontStyle=1;fillColor=#fff2cc;strokeColor=#d6b656;strokeWidth=3;" vertex="1" parent="1">
          <mxGeometry x="620" y="520" width="100" height="50" as="geometry" />
        </mxCell>
        <mxCell id="n2znYoqwNfWHmBYJADCS-76" value="&lt;b&gt;Route&amp;nbsp;Microservice&lt;/b&gt;" style="text;html=1;align=center;verticalAlign=middle;whiteSpace=wrap;rounded=0;fillColor=#d5e8d4;strokeColor=#82b366;strokeWidth=3;" vertex="1" parent="1">
          <mxGeometry x="350" y="630" width="130" height="50" as="geometry" />
        </mxCell>
        <mxCell id="n2znYoqwNfWHmBYJADCS-77" value="LiveTrack Microservice" style="text;html=1;align=center;verticalAlign=middle;whiteSpace=wrap;rounded=0;fontStyle=1;fillColor=#dae8fc;strokeColor=#6c8ebf;strokeWidth=3;" vertex="1" parent="1">
          <mxGeometry x="520" y="930" width="110" height="60" as="geometry" />
        </mxCell>
      </root>
    </mxGraphModel>
  </diagram>
</mxfile>
